<svg width="24" height="24" viewBox="0 0 24 24" fill="none" xmlns="http://www.w3.org/2000/svg">
<path d="M11.7624 0.0984165L7.05468 4.8062C6.92342 4.93742 6.92342 5.15016 7.05468 5.28142L11.7624 9.98917C11.8936 10.1204 12.1064 10.1204 12.2376 9.98917L16.9454 5.28142C17.0766 5.15016 17.0766 4.93742 16.9454 4.8062L12.2376 0.0984154C12.1064 -0.0328053 11.8936 -0.0328053 11.7624 0.0984165Z" fill="#C5FD2C"/>
<path d="M18.7186 7.05446L14.0109 11.7623C13.8797 11.8935 13.8797 12.1062 14.0109 12.2374L18.7186 16.9452C18.8499 17.0765 19.0626 17.0765 19.1939 16.9452L23.9016 12.2374C24.0328 12.1062 24.0328 11.8935 23.9016 11.7623L19.1939 7.05446C19.0626 6.92325 18.8499 6.92325 18.7186 7.05446Z" fill="#C5FD2C"/>
<path d="M11.7624 14.011L7.05468 18.7188C6.92342 18.85 6.92342 19.0628 7.05468 19.194L11.7624 23.9018C11.8936 24.033 12.1064 24.033 12.2376 23.9018L16.9454 19.194C17.0766 19.0628 17.0766 18.85 16.9454 18.7188L12.2376 14.011C12.1064 13.8798 11.8936 13.8798 11.7624 14.011Z" fill="#C5FD2C"/>
<path d="M4.8062 7.05446L0.0984159 11.7623C-0.0328053 11.8935 -0.0328053 12.1062 0.0984159 12.2374L4.8062 16.9452C4.93742 17.0765 5.15017 17.0765 5.28137 16.9452L9.98918 12.2374C10.1204 12.1062 10.1204 11.8935 9.98918 11.7623L5.28137 7.05446C5.15017 6.92325 4.93742 6.92325 4.8062 7.05446Z" fill="#C5FD2C"/>
</svg>
