<svg width="25" height="25" viewBox="0 0 25 25" fill="none" xmlns="http://www.w3.org/2000/svg">
<path d="M12.5003 0.213163L7.7925 4.92095C7.66125 5.05217 7.66125 5.26491 7.7925 5.39616L12.5003 10.1039C12.6315 10.2351 12.8442 10.2351 12.9754 10.1039L17.6832 5.39616C17.8145 5.26491 17.8145 5.05217 17.6832 4.92095L12.9754 0.213162C12.8442 0.0819408 12.6315 0.0819408 12.5003 0.213163Z" fill="black"/>
<path d="M19.4564 7.16921L14.7487 11.877C14.6175 12.0082 14.6175 12.221 14.7487 12.3522L19.4564 17.0599C19.5877 17.1912 19.8004 17.1912 19.9317 17.0599L24.6394 12.3522C24.7706 12.221 24.7706 12.0082 24.6394 11.877L19.9317 7.16921C19.8004 7.038 19.5877 7.038 19.4564 7.16921Z" fill="black"/>
<path d="M12.5003 14.1258L7.7925 18.8335C7.66125 18.9647 7.66125 19.1775 7.7925 19.3087L12.5003 24.0165C12.6315 24.1477 12.8442 24.1477 12.9754 24.0165L17.6832 19.3087C17.8145 19.1775 17.8145 18.9647 17.6832 18.8335L12.9754 14.1258C12.8442 13.9945 12.6315 13.9945 12.5003 14.1258Z" fill="black"/>
<path d="M5.54402 7.16921L0.836239 11.877C0.705018 12.0082 0.705018 12.221 0.836239 12.3522L5.54402 17.0599C5.67524 17.1912 5.88799 17.1912 6.0192 17.0599L10.727 12.3522C10.8582 12.221 10.8582 12.0082 10.727 11.877L6.0192 7.16921C5.88799 7.038 5.67524 7.038 5.54402 7.16921Z" fill="black"/>
</svg>
