<svg width="89" height="26" viewBox="0 0 89 26" fill="none" xmlns="http://www.w3.org/2000/svg">
<g clip-path="url(#clip0_9_517)">
<path d="M12.388 1.21213L7.72519 5.87498C7.59518 6.00495 7.59518 6.21566 7.72519 6.34566L12.388 11.0085C12.518 11.1384 12.7287 11.1384 12.8587 11.0085L17.5215 6.34566C17.6515 6.21566 17.6515 6.00495 17.5215 5.87498L12.8587 1.21213C12.7287 1.08216 12.518 1.08216 12.388 1.21213Z" fill="black"/>
<path d="M19.2777 8.10195L14.6149 12.7648C14.485 12.8948 14.485 13.1055 14.6149 13.2355L19.2777 17.8983C19.4077 18.0283 19.6184 18.0283 19.7484 17.8983L24.4113 13.2355C24.5412 13.1055 24.5412 12.8948 24.4113 12.7648L19.7484 8.10195C19.6184 7.972 19.4077 7.972 19.2777 8.10195Z" fill="black"/>
<path d="M12.388 14.9918L7.72519 19.6546C7.59518 19.7846 7.59518 19.9953 7.72519 20.1253L12.388 24.7882C12.518 24.9181 12.7287 24.9181 12.8587 24.7882L17.5215 20.1253C17.6515 19.9953 17.6515 19.7846 17.5215 19.6546L12.8587 14.9918C12.7287 14.8618 12.518 14.8618 12.388 14.9918Z" fill="black"/>
<path d="M5.49812 8.10195L0.83527 12.7648C0.705301 12.8948 0.705301 13.1055 0.83527 13.2355L5.49812 17.8983C5.62809 18.0283 5.83881 18.0283 5.96876 17.8983L10.6316 13.2355C10.7616 13.1055 10.7616 12.8948 10.6316 12.7648L5.96876 8.10195C5.83881 7.972 5.62809 7.972 5.49812 8.10195Z" fill="black"/>
<path d="M28.5604 20.9298H31.7837L33.4209 16.4019H39.7907L41.4023 20.9298H44.8558L38.6651 3.94373H34.9558L28.5604 20.9298ZM36.6697 7.4228L38.8953 13.7158H34.3674L36.6697 7.4228Z" fill="black"/>
<path d="M49.3128 3.7135H46.2174V20.9298H49.3128V17.5786L51.0011 15.6088L54.0707 20.9298H57.4986L53.0474 13.3833L57.2172 8.85536H53.6358L49.3128 14.1507V3.7135Z" fill="black"/>
<path d="M61.629 3.7135H58.5337V20.9298H61.629V17.5786L63.3174 15.6088L66.3872 20.9298H69.8151L65.3639 13.3833L69.5337 8.85536H65.9523L61.629 14.1507V3.7135Z" fill="black"/>
<path d="M74.0728 8.85537H70.8751V20.9298H74.0728V8.85537ZM74.124 3.9949H70.824V7.09025H74.124V3.9949Z" fill="black"/>
<path d="M82.0219 18.5763C80.1801 18.5763 79.0801 17.2461 79.0801 14.9949V14.8926C79.0801 12.5902 80.2056 11.2088 82.0731 11.2088C83.9149 11.2088 85.0405 12.5902 85.0405 14.8926V14.9949C85.0405 17.2461 83.8894 18.5763 82.0219 18.5763ZM81.9963 21.16C85.6545 21.16 88.2638 18.5507 88.2638 14.9181C88.2638 11.2344 85.7056 8.62512 82.0731 8.62512C78.4149 8.62512 75.8568 11.2344 75.8568 14.9181C75.8568 18.6019 78.3638 21.16 81.9963 21.16Z" fill="black"/>
</g>
<defs>
<clipPath id="clip0_9_517">
<rect width="88" height="24.0465" fill="white" transform="translate(0.599976 0.976807)"/>
</clipPath>
</defs>
</svg>
